<svg width="24" height="24" viewBox="0 0 24 24" fill="none" xmlns="http://www.w3.org/2000/svg">
<path d="M5.92383 1H16.0738C18.6272 2.80843 20.8536 5.03897 22.6573 7.59575V23.2075H5.92383V1Z" fill="url(#paint0_linear_1785_20013)"/>
<path fill-rule="evenodd" clip-rule="evenodd" d="M5.92383 1H16.0738C18.6272 2.80843 20.8536 5.03897 22.6573 7.59575V23.2075H5.92383V1Z" stroke="#C8C8C8" stroke-width="0.5"/>
<path d="M16.0718 1C18.622 2.81278 20.8483 5.04263 22.657 7.59575C21.4398 6.34476 19.7325 5.69477 17.9915 5.8195C18.241 3.98751 17.5125 2.15871 16.0718 1L16.0718 1Z" fill="url(#paint1_linear_1785_20013)"/>
<path fill-rule="evenodd" clip-rule="evenodd" d="M16.0718 1C18.622 2.81278 20.8483 5.04263 22.657 7.59575C21.4398 6.34476 19.7325 5.69477 17.9915 5.8195C18.241 3.98751 17.5125 2.15871 16.0718 1L16.0718 1Z" stroke="#C8C8C8" stroke-width="0.5"/>
<path fill-rule="evenodd" clip-rule="evenodd" d="M2.66406 3.91699H15.0016V6.27949H2.66406V3.91699Z" stroke="#C8C8C8" stroke-width="3.5"/>
<path fill-rule="evenodd" clip-rule="evenodd" d="M11.9255 15.428C11.8949 15.488 11.8645 15.5475 11.8344 15.6065L11.8318 15.6039C10.1483 18.8983 8.84015 20.6763 7.96515 20.8005V20.7647C7.94678 20.3534 8.7054 19.2938 9.73353 18.4512C9.84028 18.3645 10.2979 17.9218 10.2979 17.9218C10.2979 17.9218 9.68015 18.2447 9.5419 18.3322C8.2539 19.1013 7.61253 19.8722 7.5084 20.3832C7.45956 20.5336 7.50864 20.6986 7.63178 20.7979L7.96165 20.9633C8.85765 21.4122 9.96015 20.2327 11.4258 17.6637C13.0729 17.128 14.7608 16.7268 16.4728 16.464C17.9892 17.3303 19.7287 17.7398 20.3972 17.5648C20.5276 17.5249 20.6427 17.4462 20.727 17.339C20.7826 17.2021 20.8254 17.0603 20.8548 16.9155C20.7924 17.0029 20.7147 17.0782 20.6255 17.1378C20.2029 17.3373 18.8668 17.0039 17.4965 16.3337C18.3919 16.189 19.3057 16.2018 20.1968 16.3713C20.8662 16.5865 20.8662 16.8044 20.8574 16.849C20.8775 16.7682 20.8895 16.6855 20.8933 16.6023C20.8856 16.4429 20.8192 16.2921 20.7069 16.1788C20.1972 15.8731 19.6025 15.7403 19.0112 15.7999C18.2739 15.8001 17.5378 15.8553 16.8088 15.9653C16.4203 15.7583 16.0563 15.5082 15.7238 15.2198C14.8772 14.4028 14.2343 13.3985 13.8469 12.2877C13.8758 12.1774 13.9029 12.0689 13.9274 11.9595C14.0429 11.4424 14.1252 9.7309 14.1252 9.7309C14.1252 9.7309 13.7979 11.0163 13.7463 11.2105C13.7113 11.3339 13.671 11.4652 13.6238 11.6017C13.393 10.8258 13.2656 10.0229 13.2449 9.21378C13.2453 8.93854 13.2679 8.66378 13.3123 8.39215C13.3155 8.25352 13.3795 8.1233 13.4873 8.03603C13.6369 8.07365 13.804 8.30203 13.979 8.68615C14.0927 8.99089 14.1407 9.3162 14.1199 9.64078C14.205 9.33548 14.2465 9.01969 14.2433 8.70278C14.2205 8.49365 14.0219 7.95553 13.5984 7.96165H13.3762C13.0902 7.93595 12.8203 8.09792 12.7085 8.3624C12.4487 9.31965 12.7392 10.8002 13.2239 12.6447L13.0769 13.0017C12.7365 13.8397 12.3105 14.6739 11.9255 15.428ZM11.5553 17.3487C11.8314 16.8614 12.1015 16.3708 12.3655 15.8769H12.3612C12.8039 15.0469 13.189 14.1874 13.5135 13.3044C13.9574 14.217 14.5826 15.0295 15.351 15.6923C15.5299 15.8426 15.7159 15.9843 15.9084 16.1167C14.4181 16.3732 12.959 16.7861 11.5553 17.3487Z" fill="#F91D0A"/>
<path d="M1.27393 2.58008H16.3799V7.6577H1.27393V2.58008Z" fill="url(#paint2_linear_1785_20013)"/>
<path fill-rule="evenodd" clip-rule="evenodd" d="M1 7.9625H16.6678V2.27588H1V7.9625ZM1.5635 2.83938H16.1051V7.39725H1.5635V2.83938Z" fill="url(#paint3_linear_1785_20013)"/>
<path fill-rule="evenodd" clip-rule="evenodd" d="M5.22168 3.32472H6.32068C6.60151 3.30674 6.87615 3.41257 7.0723 3.61435C7.26075 3.84438 7.3546 4.13751 7.3348 4.43422C7.35458 4.73227 7.2608 5.02675 7.0723 5.25847C6.87568 5.45929 6.60111 5.56413 6.32068 5.54547H5.88318V6.72585H5.22168V3.32472ZM5.88405 3.96347V4.91022H6.25068C6.36348 4.91666 6.47304 4.87122 6.54818 4.78685C6.6232 4.68613 6.66037 4.56223 6.65318 4.43685C6.66122 4.31137 6.62396 4.18718 6.54818 4.08685C6.47312 4.00236 6.3635 3.9569 6.25068 3.96347H5.88405ZM8.46443 6.06347V3.9941H8.70155C8.9385 3.97842 9.16889 4.07577 9.3228 4.2566C9.47961 4.48145 9.55494 4.7531 9.5363 5.0266C9.55494 5.30171 9.479 5.57494 9.32105 5.80097C9.16794 5.98186 8.93802 6.07929 8.70155 6.06347H8.46443ZM7.80205 3.33085H8.50205C8.79446 3.31595 9.08724 3.35177 9.36743 3.43672C9.56305 3.51284 9.73342 3.64228 9.85918 3.81035C9.98205 3.96846 10.0733 4.1488 10.1278 4.34147C10.189 4.5634 10.2185 4.7929 10.2153 5.0231C10.2185 5.25532 10.1891 5.48683 10.1278 5.71085C10.0733 5.90352 9.98205 6.08386 9.85918 6.24197C9.73183 6.41054 9.56047 6.54073 9.36393 6.61822C9.08315 6.70345 8.78995 6.74044 8.4968 6.7276H7.7968V3.32472L7.80205 3.33085ZM12.5174 3.32472H10.7263V6.72585H11.3887V5.28385H12.4466V4.6206H11.3887V3.98797H12.5174V3.32472Z" fill="#FFF9F9"/>
<defs>
<linearGradient id="paint0_linear_1785_20013" x1="15.0235" y1="22.5037" x2="23.6302" y2="13.6719" gradientUnits="userSpaceOnUse">
<stop stop-color="white"/>
<stop offset="1" stop-color="#E1E1E1"/>
</linearGradient>
<linearGradient id="paint1_linear_1785_20013" x1="19.043" y1="5.47463" x2="19.9964" y2="4.59852" gradientUnits="userSpaceOnUse">
<stop stop-color="white"/>
<stop offset="1" stop-color="#C8C8C8"/>
</linearGradient>
<linearGradient id="paint2_linear_1785_20013" x1="23.7304" y1="9.14197" x2="23.3953" y2="0.0139127" gradientUnits="userSpaceOnUse">
<stop offset="0.127" stop-color="#8A0000"/>
<stop offset="0.244" stop-color="#900000" stop-opacity="0.999"/>
<stop offset="0.398" stop-color="#A00000" stop-opacity="0.999"/>
<stop offset="0.573" stop-color="#BC0000" stop-opacity="0.998"/>
<stop offset="0.761" stop-color="#E20000" stop-opacity="0.997"/>
<stop offset="0.867" stop-color="#FA0000" stop-opacity="0.996"/>
</linearGradient>
<linearGradient id="paint3_linear_1785_20013" x1="23.847" y1="9.41871" x2="23.4248" y2="-0.447101" gradientUnits="userSpaceOnUse">
<stop offset="0.315" stop-color="#5E0000"/>
<stop offset="0.444" stop-color="#830000" stop-opacity="0.999"/>
<stop offset="0.618" stop-color="#AE0000" stop-opacity="0.998"/>
<stop offset="0.775" stop-color="#CD0000" stop-opacity="0.997"/>
<stop offset="0.908" stop-color="#E00000" stop-opacity="0.996"/>
<stop offset="1" stop-color="#E70000" stop-opacity="0.996"/>
</linearGradient>
</defs>
</svg>
