<svg width="32" height="32" viewBox="0 0 32 32" fill="none" xmlns="http://www.w3.org/2000/svg">
<path d="M28.2962 6.968L27.2924 5.96414C26.8274 5.49919 26.1108 5.45534 25.6997 5.8664L22.2662 9.29963V6.33192C22.2662 5.046 21.2202 4 19.9343 4H5.33192C4.046 4 3 5.046 3 6.33192V25.6678C3 26.9537 4.046 28 5.33192 28H19.9343C21.2199 28 22.2662 26.954 22.2662 25.6678V14.6818L28.394 8.56064C28.8056 8.14958 28.7609 7.43267 28.2962 6.968ZM20.7742 25.6678C20.7742 26.131 20.3978 26.508 19.9343 26.508H5.33192C4.8684 26.508 4.49203 26.1313 4.49203 25.6678V6.33192C4.49203 5.86869 4.8684 5.49203 5.33192 5.49203H19.9343C20.3975 5.49203 20.7742 5.86869 20.7742 6.33192V10.7917L16.2929 15.2732L18.982 17.9629L20.7742 16.1724V25.6678Z" fill="white"/>
<path d="M14.7106 18.8174C14.538 19.3872 14.8637 19.7143 15.435 19.542L18.2565 18.689L15.5666 16.0002L14.7106 18.8174Z" fill="white"/>
<path d="M6.56713 9.8248H18.2239C18.6355 9.8248 18.97 9.49084 18.97 9.07864C18.97 8.66672 18.6355 8.33248 18.2239 8.33248H6.56713C6.15492 8.33248 5.82097 8.66672 5.82097 9.07864C5.82097 9.49084 6.15492 9.8248 6.56713 9.8248Z" fill="white"/>
<path d="M18.2239 22.0413H6.56713C6.15492 22.0413 5.82097 22.375 5.82097 22.7875C5.82097 23.1991 6.15492 23.5336 6.56713 23.5336H18.2239C18.6355 23.5336 18.97 23.1991 18.97 22.7875C18.9697 22.375 18.6352 22.0413 18.2239 22.0413Z" fill="white"/>
<path d="M6.56713 14.394H13.9066C14.3182 14.394 14.6527 14.0601 14.6527 13.6479C14.6527 13.2359 14.3182 12.9017 13.9066 12.9017H6.56713C6.15492 12.9017 5.82097 13.2359 5.82097 13.6479C5.82097 14.0601 6.15492 14.394 6.56713 14.394Z" fill="white"/>
<path d="M6.56713 18.9638H12.5352C12.9472 18.9638 13.2814 18.6293 13.2814 18.2177C13.2814 17.8052 12.9472 17.4715 12.5352 17.4715H6.56713C6.15492 17.4715 5.82097 17.8049 5.82097 18.2177C5.82097 18.6293 6.15492 18.9638 6.56713 18.9638Z" fill="white"/>
</svg>
