<svg width="32" height="32" viewBox="0 0 32 32" fill="none" xmlns="http://www.w3.org/2000/svg">
<path d="M20.1958 4.00007H15.1038C13.5479 3.99336 12.0247 4.4463 10.7253 5.30206C9.4259 6.15781 8.40816 7.37827 7.79979 8.8103C7.63842 8.77324 7.47075 8.77324 7.30938 8.8103C4.34603 9.37375 3 12.4414 3 15.0709V26.9556C2.99949 27.1433 3.04962 27.3277 3.14511 27.4893C3.2406 27.6509 3.37792 27.7837 3.54259 27.8738C3.70877 27.9639 3.89631 28.0072 4.08517 27.999C4.28866 28.0005 4.48814 27.9425 4.65906 27.8321L7.59111 25.9122H16.022C17.0915 25.9018 18.1389 25.6062 19.056 25.0559C19.9731 24.5057 20.7268 23.7206 21.2392 22.7819H23.5139L26.4459 24.7018C26.6228 24.8162 26.8301 24.8744 27.0407 24.8687C27.2155 24.8696 27.3877 24.8265 27.5415 24.7435C27.7062 24.6534 27.8435 24.5206 27.939 24.359C28.0345 24.1974 28.0846 24.013 28.0841 23.8253V11.8884C28.0814 9.79715 27.2494 7.79232 25.7706 6.31357C24.2919 4.83481 22.287 4.00283 20.1958 4.00007ZM16.022 23.8253H7.27808C7.07516 23.8278 6.87676 23.8855 6.70419 23.9922L5.12861 25.0252V15.0187C5.12861 13.6623 5.72336 11.6171 7.26764 10.9911C7.23437 11.2891 7.21695 11.5886 7.21547 11.8884V14.8935C7.21823 16.9848 8.05021 18.9896 9.52897 20.4684C11.0077 21.9471 13.0125 22.7791 15.1038 22.7819H18.6932C17.9438 23.4173 17.0038 23.7845 16.022 23.8253ZM25.9973 21.8949L24.4217 20.8515C24.2485 20.7462 24.0505 20.6886 23.8478 20.6846H15.1038C13.5678 20.6818 12.0954 20.0711 11.0083 18.986C9.92118 17.9009 9.30785 16.4295 9.30234 14.8935V11.8884C9.3051 10.3506 9.91721 8.87659 11.0046 7.7892C12.092 6.70181 13.566 6.0897 15.1038 6.08694H20.1958C21.7336 6.0897 23.2076 6.70181 24.295 7.7892C25.3824 8.87659 25.9945 10.3506 25.9973 11.8884V21.8949ZM23.3887 15.4778C23.3887 15.7546 23.2787 16.02 23.0831 16.2156C22.8874 16.4113 22.622 16.5213 22.3452 16.5213H12.9544C12.6776 16.5213 12.4122 16.4113 12.2165 16.2156C12.0209 16.02 11.9109 15.7546 11.9109 15.4778C11.9109 15.2011 12.0209 14.9357 12.2165 14.74C12.4122 14.5443 12.6776 14.4344 12.9544 14.4344H22.3452C22.622 14.4344 22.8874 14.5443 23.0831 14.74C23.2787 14.9357 23.3887 15.2011 23.3887 15.4778ZM23.3887 11.3041C23.3887 11.5808 23.2787 11.8462 23.0831 12.0419C22.8874 12.2376 22.622 12.3475 22.3452 12.3475H12.9544C12.6776 12.3475 12.4122 12.2376 12.2165 12.0419C12.0209 11.8462 11.9109 11.5808 11.9109 11.3041C11.9109 11.0274 12.0209 10.762 12.2165 10.5663C12.4122 10.3706 12.6776 10.2607 12.9544 10.2607H22.3452C22.622 10.2607 22.8874 10.3706 23.0831 10.5663C23.2787 10.762 23.3887 11.0274 23.3887 11.3041Z" fill="white"/>
</svg>
