<svg width="32" height="32" viewBox="0 0 32 32" fill="none" xmlns="http://www.w3.org/2000/svg">
<path d="M14.6621 21.9572V18.2286H18.3478V15.4H14.6621V11.6715H11.705V15.4H8.06211V18.3143H11.7907V21.9572H14.6621Z" fill="white"/>
<path d="M27.9906 5.24286C27.6049 4.9 27.1335 4.64286 26.7049 4.42857C26.662 4.38571 26.6192 4.38571 26.5763 4.34286C26.3192 4.17143 25.9763 4 25.6763 4C25.5049 4 25.3763 4.04286 25.2478 4.12857C24.9049 4.38571 24.7335 4.68571 24.7335 5.02857C24.7763 5.28571 24.9478 5.54286 25.2906 5.71429C25.4192 5.75714 25.5049 5.8 25.6335 5.8C25.8049 5.8 25.9763 5.75714 26.1049 5.67143C26.2335 5.62857 26.3192 5.58571 26.4478 5.58571C26.7478 5.58571 27.0906 5.97143 27.3906 6.61429C27.7763 7.51429 27.3478 8.58571 26.962 9.52857C26.8763 9.74286 26.7906 9.95714 26.7049 10.1714C26.362 11.0714 26.0192 12.0143 25.6763 12.9143C25.4192 13.0429 25.2478 13.2571 25.2049 13.5571C24.9049 15.4857 23.9192 15.6571 23.6192 15.6571H23.5335C23.062 15.6571 22.6763 15.3143 22.3763 14.7143L22.2478 14.5C22.0335 14.0286 21.9478 13.6 21.9478 13.5571C21.9049 13.3 21.7763 13.1286 21.562 13C21.562 12.9571 21.5192 12.8714 21.4763 12.8286C21.0049 11.5 20.362 9.74286 19.8049 7.98571C19.5478 7.17143 19.762 6.44286 20.4049 5.84286C20.5763 5.71429 20.7478 5.58571 20.9192 5.62857C21.0049 5.62857 21.0478 5.67143 21.1335 5.71429C21.262 5.75714 21.3906 5.84286 21.562 5.84286H21.6049C22.1192 5.84286 22.6335 5.5 22.6335 4.94286C22.6335 4.68571 22.5478 4.47143 22.3763 4.3C22.2049 4.12857 21.9906 4.04286 21.6906 4.08571C21.4335 4.08571 21.2192 4.17143 21.0049 4.25714C20.8763 4.3 20.7478 4.34286 20.6192 4.38571C19.8906 4.55714 19.2906 5.07143 18.9049 5.75714C18.4763 6.57143 18.3478 7.55714 18.6478 8.45714C19.162 10.0429 19.7192 11.7143 20.2763 13.4286C20.2335 13.5571 20.1906 13.7286 20.2335 13.9C20.3192 14.3714 20.4478 14.8 20.6192 15.2286C20.9192 15.9143 21.3906 16.6 22.0763 17.0286C22.2478 17.1143 22.4192 17.2 22.5906 17.2857H22.762C22.762 17.5857 22.7192 17.8857 22.6763 18.1857C22.5478 19.8571 21.8192 21.4857 20.7478 22.8571C18.6049 25.5143 15.3049 26.8429 11.962 26.3714C10.9335 26.2429 9.94776 25.9429 9.04776 25.5143L8.61919 25.3L8.36205 25.3429L7.93348 25.4286C7.54776 25.5571 7.20491 25.6429 6.81919 25.6857C6.69062 25.7286 6.56205 25.7286 6.43348 25.7286L6.21919 25.7714C5.61919 25.8571 4.93348 25.8571 4.16205 25.7286H4.07633C3.94776 25.7286 3.86205 25.6857 3.77633 25.6857L4.97633 24.4857C5.10491 24.3571 5.19062 24.2714 5.27633 24.1857L6.00491 23.3286L5.36205 22.4286C3.94776 20.4143 3.30491 17.9714 3.64776 15.5286C3.86205 13.7714 4.59062 12.1429 5.7049 10.7714C7.37633 8.71428 9.64776 7.47143 12.2192 7.21429C12.5192 7.81429 13.162 8.28571 13.8906 8.28571C14.9192 8.28571 15.7335 7.47143 15.7335 6.44286C15.7335 5.41429 14.9192 4.6 13.8906 4.6C13.1192 4.6 12.4763 5.07143 12.1763 5.71429C9.13348 5.97143 6.39062 7.42857 4.46205 9.87143C3.17633 11.4571 2.36205 13.3857 2.10491 15.4C1.71919 18.1857 2.4049 21.0143 4.03348 23.3286C3.99062 23.3714 3.94776 23.4143 3.90491 23.4571L2.53348 24.7857C2.14776 25.1714 2.01919 25.6857 2.14776 26.1571C2.36205 26.7571 2.91919 27.1429 3.90491 27.2714H3.99062C4.89062 27.4 5.70491 27.4 6.43348 27.3143L6.6049 27.2714C6.73348 27.2714 6.90491 27.2286 7.07633 27.2286C7.50491 27.1429 7.89062 27.0571 8.31919 26.9286C9.34776 27.4429 10.5049 27.7857 11.662 27.9143C12.2192 28 12.7335 28 13.2478 28C16.5906 28 19.762 26.5 21.9478 23.8C23.2335 22.2143 24.0478 20.2857 24.3049 18.2714C24.3478 17.8857 24.3906 17.5429 24.3906 17.1571C24.9906 17.0286 25.5906 16.5571 25.9335 16.0857C26.4478 15.4429 26.7049 14.5857 26.8763 13.7714C26.8763 13.6429 26.8763 13.5143 26.8763 13.4286C26.9192 13.2571 27.0049 13.0857 27.0478 12.8714C27.262 12.2286 27.5192 11.5429 27.7335 10.9C27.9906 10.1286 28.2906 9.35714 28.5478 8.54286C28.6763 8.2 28.762 7.77143 28.762 7.34286C28.8049 6.48571 28.5049 5.71429 27.9906 5.24286Z" fill="white"/>
</svg>
