<svg width="24" height="24" viewBox="0 0 24 24" fill="none" xmlns="http://www.w3.org/2000/svg">
<path d="M20.9396 13.5897V4C20.9396 2.69231 19.8775 1.61538 18.5877 1.61538H15.5024V0.74359C15.5024 0.333333 15.1736 0 14.769 0C14.3644 0 14.0356 0.333333 14.0356 0.74359V1.61538H6.87871V0.74359C6.87871 0.333333 6.54995 0 6.14532 0C5.74069 0 5.41193 0.333333 5.41193 0.74359V1.61538H2.35191C1.06216 1.61538 0 2.69231 0 4V18C0 19.3077 1.06216 20.3846 2.35191 20.3846H13.5551C14.3138 22.4872 16.2864 24 18.613 24C21.5971 24 23.9996 21.5385 23.9996 18.5128C24.0249 16.359 22.7605 14.4615 20.9396 13.5897ZM1.46679 4C1.46679 3.51282 1.87142 3.10256 2.35191 3.10256H5.41193V3.97436C5.41193 4.38462 5.74069 4.71795 6.14532 4.71795C6.54995 4.71795 6.87871 4.38462 6.87871 3.97436V3.10256H14.0356V3.97436C14.0356 4.38462 14.3644 4.71795 14.769 4.71795C15.1736 4.71795 15.5024 4.38462 15.5024 3.97436V3.10256H18.5877C19.0682 3.10256 19.4728 3.51282 19.4728 4V7.02564H1.46679V4ZM2.35191 18.8974C1.84613 18.8974 1.46679 18.4872 1.46679 18V8.51282H19.4981V13.1282C19.2199 13.0769 18.9417 13.0513 18.6383 13.0513C15.6541 13.0513 13.2263 15.5128 13.2263 18.5385C13.2263 18.6667 13.2264 18.7949 13.2516 18.9231H2.35191V18.8974ZM18.6383 22.5128C16.4634 22.5128 14.6931 20.7179 14.6931 18.5128C14.6931 16.3077 16.4634 14.5128 18.6383 14.5128C20.8132 14.5128 22.5834 16.3077 22.5834 18.5128C22.5834 20.7179 20.7879 22.5128 18.6383 22.5128Z" fill="white"/>
<path d="M19.574 17.1026L18.1831 18.6154L17.5761 17.9487C17.2979 17.641 16.8174 17.641 16.5393 17.9231C16.2358 18.2051 16.2358 18.6667 16.514 18.9744L17.652 20.2308C17.7784 20.3846 17.9808 20.4615 18.1831 20.4615C18.3854 20.4615 18.5877 20.3846 18.7142 20.2308L20.6361 18.1282C20.9143 17.8205 20.889 17.359 20.6109 17.0769C20.3074 16.7949 19.8522 16.7949 19.574 17.1026Z" fill="white"/>
</svg>
