<svg width="32" height="32" viewBox="0 0 32 32" fill="none" xmlns="http://www.w3.org/2000/svg">
<path d="M15.6049 17.0909C15.3156 17.0909 15.0381 16.976 14.8335 16.7714C14.6289 16.5668 14.514 16.2893 14.514 16V5.09091C14.514 4.80158 14.6289 4.5241 14.8335 4.31952C15.0381 4.11493 15.3156 4 15.6049 4C15.8942 4 16.1717 4.11493 16.3763 4.31952C16.5809 4.5241 16.6958 4.80158 16.6958 5.09091V16C16.6958 16.2893 16.5809 16.5668 16.3763 16.7714C16.1717 16.976 15.8942 17.0909 15.6049 17.0909Z" fill="white"/>
<path d="M15.6049 28C13.2594 28.0064 10.9743 27.2567 9.08846 25.862C7.20264 24.4673 5.81653 22.502 5.1357 20.2575C4.45488 18.013 4.51559 15.6088 5.30884 13.4015C6.10209 11.1942 7.58564 9.30132 9.53945 8.00363C9.65836 7.9234 9.7919 7.86738 9.93246 7.83877C10.073 7.81015 10.2178 7.8095 10.3586 7.83685C10.4994 7.8642 10.6335 7.91902 10.7531 7.99818C10.8727 8.07733 10.9756 8.17927 11.0558 8.29817C11.136 8.41708 11.1921 8.55062 11.2207 8.69118C11.2493 8.83173 11.2499 8.97655 11.2226 9.11736C11.1952 9.25816 11.1404 9.39221 11.0613 9.51183C10.9821 9.63145 10.8802 9.73431 10.7613 9.81454C9.20337 10.8539 8.02115 12.3669 7.38931 14.13C6.75747 15.893 6.70953 17.8125 7.25257 19.6048C7.7956 21.3972 8.90081 22.9673 10.4049 24.0832C11.9089 25.1991 13.7321 25.8016 15.6049 25.8016C17.4777 25.8016 19.3009 25.1991 20.8049 24.0832C22.309 22.9673 23.4142 21.3972 23.9572 19.6048C24.5003 17.8125 24.4523 15.893 23.8205 14.13C23.1886 12.3669 22.0064 10.8539 20.4485 9.81454C20.2084 9.65251 20.0424 9.40173 19.9872 9.11736C19.932 8.83298 19.992 8.53832 20.154 8.29817C20.316 8.05803 20.5668 7.89209 20.8512 7.83685C21.1355 7.78162 21.4302 7.84161 21.6703 8.00363C23.6242 9.30132 25.1077 11.1942 25.901 13.4015C26.6942 15.6088 26.7549 18.013 26.0741 20.2575C25.3933 22.502 24.0072 24.4673 22.1213 25.862C20.2355 27.2567 17.9504 28.0064 15.6049 28Z" fill="white"/>
</svg>
