<svg width="32" height="32" viewBox="0 0 32 32" fill="none" xmlns="http://www.w3.org/2000/svg">
<path d="M9.27176 12.3163C9.15166 13.4998 10.5424 14.9239 11.1742 15.5051C10.92 16.0186 10.3854 17.0487 9.82488 17.8171C9.71754 17.9641 9.70253 18.1593 9.78646 18.3208C9.86894 18.4801 10.0335 18.58 10.2125 18.58C10.2149 18.58 10.2177 18.58 10.22 18.58C10.2918 18.5787 11.8128 18.5447 12.9214 17.9004C13.0813 18.0629 13.2437 18.2202 13.4127 18.3595C14.2785 19.0705 15.2104 19.45 16.1812 19.4875C16.22 19.4891 16.2585 19.4898 16.2974 19.4898C17.1683 19.4898 18.0725 19.1099 18.9871 18.359C19.1559 18.2199 19.3181 18.0627 19.4779 17.9004C20.5865 18.5447 22.1075 18.5787 22.1793 18.58C22.1816 18.58 22.1844 18.58 22.1868 18.58C22.3658 18.58 22.5304 18.4801 22.6129 18.3208C22.6968 18.1593 22.6818 17.9641 22.5744 17.8171C22.0139 17.0487 21.4793 16.0186 21.2252 15.5051C21.857 14.9239 23.2481 13.4998 23.1276 12.3163C23.099 12.037 22.979 11.6659 22.5932 11.3594C22.6663 10.4603 22.7207 7.8107 21.0927 5.93029C19.9841 4.64989 18.3383 4.00044 16.1999 4H16.198C14.061 4 12.4157 4.64872 11.3076 5.92843C9.67865 7.80881 9.73303 10.4598 9.80613 11.3594C9.42035 11.6659 9.30036 12.037 9.27176 12.3163ZM11.7832 16.4254C11.9388 16.6822 12.1033 16.9267 12.2769 17.1567C11.928 17.3297 11.531 17.4416 11.1758 17.5091C11.4081 17.125 11.6152 16.7465 11.7832 16.4254ZM20.1224 17.1567C20.2959 16.9267 20.4605 16.6821 20.6161 16.4253C20.7842 16.7465 20.9912 17.125 21.2235 17.5091C20.8683 17.4416 20.4713 17.3297 20.1224 17.1567ZM20.3263 15.0189C20.3182 15.0257 20.3147 15.0363 20.307 15.0436C20.2791 15.0703 20.2584 15.1004 20.238 15.1324C20.2272 15.1491 20.2102 15.1612 20.2016 15.1792C19.7179 16.1898 19.0869 17.0331 18.3772 17.6174C17.5986 18.257 16.8838 18.5537 16.2186 18.5284C15.4612 18.4991 14.7224 18.1926 14.0226 17.6179C13.3124 17.0331 12.6815 16.1898 12.1977 15.1792C12.1891 15.1612 12.1721 15.1491 12.1613 15.1324C12.1409 15.1004 12.1202 15.0703 12.0923 15.0436C12.0846 15.0363 12.0811 15.0257 12.073 15.0189C11.2654 14.3404 10.1582 13.0834 10.2271 12.4131C10.237 12.3123 10.2846 12.1826 10.4923 12.054C11.7648 11.9147 12.7676 10.6222 13.2557 9.84531C14.2269 10.6954 16.6302 12.4808 19.686 12.4804C20.4247 12.4804 21.2037 12.3686 22.0079 12.1215C22.1342 12.2271 22.1641 12.3299 22.1722 12.4131C22.2411 13.0834 21.134 14.3404 20.3263 15.0189ZM12.0332 6.55677C12.951 5.49719 14.3521 4.95998 16.198 4.95998H16.1999C18.0444 4.96045 19.4455 5.49693 20.3633 6.55466C21.7112 8.10779 21.6951 10.4008 21.6391 11.2233C17.1908 12.5213 13.5262 8.78697 13.4886 8.74819C13.3808 8.63594 13.2261 8.5832 13.0714 8.60544C12.9173 8.62842 12.7841 8.72427 12.7138 8.86305C12.4629 9.35758 11.6392 10.6405 10.7476 11.0135C10.7069 10.0623 10.7842 7.99885 12.0332 6.55677Z" fill="white"/>
<path d="M6 27.52C6 27.7851 6.21468 28 6.47999 28H25.9195C26.1849 28 26.3995 27.7851 26.3995 27.52C26.3995 23.5565 23.8702 20.0601 20.1056 18.82C19.9772 18.7773 19.8356 18.7912 19.717 18.8594C19.5989 18.9269 19.515 19.0415 19.4864 19.1746C19.2052 20.4777 18.0661 23.86 16.2 23.86C14.3377 23.86 13.1958 20.4775 12.9131 19.1744C12.8841 19.0415 12.8002 18.9269 12.682 18.8594C12.5644 18.7916 12.4224 18.7773 12.2939 18.82C8.52936 20.0603 6 23.5565 6 27.52ZM12.1092 19.9085C12.4922 21.2842 13.7184 24.82 16.2 24.82C18.6811 24.82 19.9073 21.284 20.2903 19.9085C23.243 21.0892 25.2417 23.8631 25.4255 27.04H6.97405C7.15779 23.8633 9.15656 21.0892 12.1092 19.9085Z" fill="white"/>
<path d="M20.3732 25.0401H21.1532V25.8201C21.1532 26.0852 21.3679 26.3001 21.6332 26.3001C21.8986 26.3001 22.1132 26.0852 22.1132 25.8201V25.0401H22.8932C23.1586 25.0401 23.3732 24.8252 23.3732 24.5601C23.3732 24.295 23.1586 24.0801 22.8932 24.0801H22.1132V23.3001C22.1132 23.035 21.8986 22.8201 21.6332 22.8201C21.3679 22.8201 21.1532 23.035 21.1532 23.3001V24.0801H20.3732C20.1079 24.0801 19.8932 24.295 19.8932 24.5601C19.8932 24.8252 20.1079 25.0401 20.3732 25.0401Z" fill="white"/>
</svg>
